<svg width="10" height="40" viewBox="0 0 10 40" fill="none" xmlns="http://www.w3.org/2000/svg">
<path d="M4.9998 39.5C7.3194 39.5 9.1998 37.6196 9.1998 35.3C9.1998 32.9804 7.3194 31.1 4.9998 31.1C2.68021 31.1 0.799805 32.9804 0.799805 35.3C0.799805 37.6196 2.68021 39.5 4.9998 39.5Z" fill="#767676"/>
<path d="M4.9998 24.1C7.3194 24.1 9.1998 22.2196 9.1998 19.9C9.1998 17.5804 7.3194 15.7 4.9998 15.7C2.68021 15.7 0.799805 17.5804 0.799805 19.9C0.799805 22.2196 2.68021 24.1 4.9998 24.1Z" fill="#767676"/>
<path d="M4.9998 8.69999C7.3194 8.69999 9.1998 6.81958 9.1998 4.49999C9.1998 2.18039 7.3194 0.299988 4.9998 0.299988C2.68021 0.299988 0.799805 2.18039 0.799805 4.49999C0.799805 6.81958 2.68021 8.69999 4.9998 8.69999Z" fill="#767676"/>
</svg>
