<svg width="35" height="35" viewBox="0 0 35 35" fill="none" xmlns="http://www.w3.org/2000/svg">
<path fill-rule="evenodd" clip-rule="evenodd" d="M23.8636 12.7273C23.8636 14.415 23.1932 16.0336 21.9998 17.227C20.8064 18.4205 19.1877 19.0909 17.5 19.0909C15.8123 19.0909 14.1936 18.4205 13.0002 17.227C11.8068 16.0336 11.1364 14.415 11.1364 12.7273C11.1364 11.0395 11.8068 9.42092 13.0002 8.2275C14.1936 7.03409 15.8123 6.36364 17.5 6.36364C19.1877 6.36364 20.8064 7.03409 21.9998 8.2275C23.1932 9.42092 23.8636 11.0395 23.8636 12.7273ZM20.6818 12.7273C20.6818 13.5711 20.3466 14.3805 19.7499 14.9772C19.1532 15.5739 18.3439 15.9091 17.5 15.9091C16.6561 15.9091 15.8468 15.5739 15.2501 14.9772C14.6534 14.3805 14.3182 13.5711 14.3182 12.7273C14.3182 11.8834 14.6534 11.0741 15.2501 10.4774C15.8468 9.88068 16.6561 9.54545 17.5 9.54545C18.3439 9.54545 19.1532 9.88068 19.7499 10.4774C20.3466 11.0741 20.6818 11.8834 20.6818 12.7273Z" fill="white"/>
<path fill-rule="evenodd" clip-rule="evenodd" d="M17.5 0C7.83523 0 0 7.83523 0 17.5C0 27.1648 7.83523 35 17.5 35C27.1648 35 35 27.1648 35 17.5C35 7.83523 27.1648 0 17.5 0ZM3.18182 17.5C3.18182 20.825 4.31614 23.8859 6.21727 26.3168C7.55241 24.5635 9.27484 23.1426 11.25 22.165C13.2252 21.1875 15.3996 20.6799 17.6034 20.6818C19.7787 20.6798 21.9258 21.1742 23.881 22.1276C25.8363 23.081 27.5481 24.4681 28.8861 26.1832C30.2646 24.3753 31.1927 22.2651 31.5937 20.0273C31.9947 17.7895 31.8571 15.4884 31.1922 13.3143C30.5273 11.1402 29.3542 9.15576 27.7701 7.52506C26.186 5.89436 24.2363 4.66432 22.0824 3.93672C19.9285 3.20912 17.6324 3.00486 15.3839 3.34087C13.1354 3.67687 10.9992 4.54346 9.15213 5.86895C7.30505 7.19443 5.80015 8.9407 4.76196 10.9633C3.72376 12.9858 3.18211 15.2265 3.18182 17.5ZM17.5 31.8182C14.2131 31.8231 11.0254 30.6924 8.47636 28.6173C9.50239 27.1484 10.868 25.9492 12.4571 25.1215C14.0462 24.2939 15.8117 23.8624 17.6034 23.8636C19.3728 23.8622 21.1169 24.283 22.691 25.0909C24.2651 25.8988 25.6238 27.0707 26.6541 28.5091C24.0852 30.6516 20.845 31.8229 17.5 31.8182Z" fill="white"/>
</svg>
