<svg width="189" height="45" viewBox="0 0 189 45" fill="none" xmlns="http://www.w3.org/2000/svg">
<path d="M58.3984 9.81818L65.1484 20.7102H65.3529L72.1029 9.81818H75.8359L67.6029 22.9091L75.8359 36H72.1029L65.3529 25.3125H65.1484L58.3984 36H54.6654L63.1029 22.9091L54.6654 9.81818H58.3984ZM79.962 36V9.81818H83.1324V21.4773H97.0926V9.81818H100.263V36H97.0926V24.2898H83.1324V36H79.962ZM114.434 36.4091C112.542 36.4091 110.91 35.9915 109.538 35.1562C108.174 34.3125 107.122 33.1364 106.38 31.6278C105.647 30.1108 105.281 28.3466 105.281 26.3352C105.281 24.3239 105.647 22.5511 106.38 21.017C107.122 19.4744 108.153 18.2727 109.474 17.4119C110.804 16.5426 112.355 16.108 114.127 16.108C115.15 16.108 116.16 16.2784 117.157 16.6193C118.154 16.9602 119.062 17.5142 119.88 18.2812C120.698 19.0398 121.35 20.0455 121.836 21.2983C122.322 22.5511 122.565 24.0937 122.565 25.9261V27.2045H107.429V24.5966H119.497C119.497 23.4886 119.275 22.5 118.832 21.6307C118.397 20.7614 117.775 20.0753 116.966 19.5724C116.164 19.0696 115.218 18.8182 114.127 18.8182C112.926 18.8182 111.886 19.1165 111.008 19.7131C110.139 20.3011 109.47 21.0682 109.001 22.0142C108.532 22.9602 108.298 23.9744 108.298 25.0568V26.7955C108.298 28.2784 108.554 29.5355 109.065 30.5668C109.585 31.5895 110.305 32.3693 111.225 32.9062C112.146 33.4347 113.216 33.6989 114.434 33.6989C115.227 33.6989 115.943 33.5881 116.582 33.3665C117.23 33.1364 117.788 32.7955 118.257 32.3438C118.725 31.8835 119.088 31.3125 119.343 30.6307L122.258 31.4489C121.951 32.4375 121.436 33.3068 120.711 34.0568C119.987 34.7983 119.092 35.3778 118.027 35.7955C116.961 36.2045 115.764 36.4091 114.434 36.4091ZM132.933 36.4602C131.689 36.4602 130.559 36.2259 129.545 35.7571C128.531 35.2798 127.725 34.5938 127.129 33.6989C126.532 32.7955 126.234 31.7045 126.234 30.4261C126.234 29.3011 126.456 28.3892 126.899 27.6903C127.342 26.983 127.934 26.429 128.676 26.0284C129.417 25.6278 130.235 25.3295 131.13 25.1335C132.034 24.929 132.941 24.767 133.853 24.6477C135.046 24.4943 136.014 24.3793 136.755 24.3026C137.505 24.2173 138.051 24.0767 138.392 23.8807C138.741 23.6847 138.916 23.3437 138.916 22.858V22.7557C138.916 21.4943 138.571 20.5142 137.88 19.8153C137.198 19.1165 136.163 18.767 134.774 18.767C133.333 18.767 132.204 19.0824 131.386 19.7131C130.568 20.3437 129.992 21.017 129.66 21.733L126.796 20.7102C127.308 19.517 127.99 18.5881 128.842 17.9233C129.703 17.25 130.64 16.7812 131.654 16.517C132.677 16.2443 133.683 16.108 134.671 16.108C135.302 16.108 136.027 16.1847 136.845 16.3381C137.671 16.483 138.468 16.7855 139.235 17.2457C140.011 17.706 140.654 18.4006 141.166 19.3295C141.677 20.2585 141.933 21.5028 141.933 23.0625V36H138.916V33.3409H138.762C138.558 33.767 138.217 34.223 137.74 34.7088C137.262 35.1946 136.627 35.608 135.835 35.9489C135.042 36.2898 134.075 36.4602 132.933 36.4602ZM133.393 33.75C134.586 33.75 135.592 33.5156 136.41 33.0469C137.237 32.5781 137.859 31.973 138.277 31.2315C138.703 30.4901 138.916 29.7102 138.916 28.892V26.1307C138.788 26.2841 138.507 26.4247 138.072 26.5526C137.646 26.6719 137.152 26.7784 136.589 26.8722C136.035 26.9574 135.494 27.0341 134.966 27.1023C134.446 27.1619 134.024 27.2131 133.7 27.2557C132.916 27.358 132.183 27.5241 131.501 27.7543C130.828 27.9759 130.282 28.3125 129.865 28.7642C129.456 29.2074 129.251 29.8125 129.251 30.5795C129.251 31.6278 129.639 32.4205 130.414 32.9574C131.198 33.4858 132.191 33.75 133.393 33.75ZM150.457 9.81818V36H147.44V9.81818H150.457ZM164.522 16.3636V18.9205H154.346V16.3636H164.522ZM157.312 11.6591H160.329V30.375C160.329 31.2273 160.453 31.8665 160.7 32.2926C160.956 32.7102 161.279 32.9915 161.671 33.1364C162.072 33.2727 162.494 33.3409 162.937 33.3409C163.269 33.3409 163.542 33.3239 163.755 33.2898C163.968 33.2472 164.139 33.2131 164.267 33.1875L164.88 35.8977C164.676 35.9744 164.39 36.0511 164.024 36.1278C163.657 36.2131 163.193 36.2557 162.63 36.2557C161.778 36.2557 160.943 36.0724 160.125 35.706C159.315 35.3395 158.642 34.7812 158.105 34.0312C157.576 33.2812 157.312 32.3352 157.312 31.1932V11.6591ZM172.5 24.1875V36H169.483V9.81818H172.5V19.4318H172.755C173.216 18.4176 173.906 17.6122 174.826 17.0156C175.755 16.4105 176.991 16.108 178.534 16.108C179.872 16.108 181.044 16.3764 182.049 16.9134C183.055 17.4418 183.835 18.2557 184.389 19.3551C184.951 20.446 185.233 21.8352 185.233 23.5227V36H182.216V23.7273C182.216 22.1676 181.811 20.9616 181.001 20.1094C180.2 19.2486 179.088 18.8182 177.664 18.8182C176.676 18.8182 175.789 19.027 175.005 19.4446C174.23 19.8622 173.616 20.4716 173.164 21.2727C172.721 22.0739 172.5 23.0455 172.5 24.1875Z" fill="black"/>
<rect x="31.8423" y="22" width="8" height="21" fill="#1DB954"/>
<rect x="46.3423" y="28.5" width="8" height="21" transform="rotate(90 46.3423 28.5)" fill="#1DB954"/>
<path d="M22.8425 39.5001C-13.6574 19.5 5.3424 -10 22.8425 6.50007C32.8423 -3.5 46.8423 5 42.3424 18.5" stroke="#1DB954" stroke-width="3" stroke-linecap="round"/>
</svg>
